<svg xmlns="http://www.w3.org/2000/svg" width="32" height="32" fill="none" viewBox="0 0 32 32" id="heart">
  <path fill="url(#paint0_radial_6994_5077)" d="M15.0835 29.5514C15.6184 29.8499 16.2621 29.8334 16.794 29.5294C20.373 27.4837 26.5913 22.7756 29.0335 16.66C32.6185 8.69682 24.201 2.34007 18.3834 6.91207C17.7767 7.38883 17.014 7.93445 16.4889 8.45136C16.2512 8.68538 15.8323 8.70922 15.5855 8.48474C14.8952 7.8567 13.8166 7.05129 13.1239 6.58262C8.16424 3.2271 -0.859974 7.65025 2.98944 17.0903C4.39946 21.3273 11.1183 27.3382 15.0835 29.5514Z"></path>
  <path fill="url(#paint1_radial_6994_5077)" d="M15.0835 29.5514C15.6184 29.8499 16.2621 29.8334 16.794 29.5294C20.373 27.4837 26.5913 22.7756 29.0335 16.66C32.6185 8.69682 24.201 2.34007 18.3834 6.91207C17.7767 7.38883 17.014 7.93445 16.4889 8.45136C16.2512 8.68538 15.8323 8.70922 15.5855 8.48474C14.8952 7.8567 13.8166 7.05129 13.1239 6.58262C8.16424 3.2271 -0.859974 7.65025 2.98944 17.0903C4.39946 21.3273 11.1183 27.3382 15.0835 29.5514Z"></path>
  <path fill="url(#paint2_radial_6994_5077)" d="M15.0835 29.5514C15.6184 29.8499 16.2621 29.8334 16.794 29.5294C20.373 27.4837 26.5913 22.7756 29.0335 16.66C32.6185 8.69682 24.201 2.34007 18.3834 6.91207C17.7767 7.38883 17.014 7.93445 16.4889 8.45136C16.2512 8.68538 15.8323 8.70922 15.5855 8.48474C14.8952 7.8567 13.8166 7.05129 13.1239 6.58262C8.16424 3.2271 -0.859974 7.65025 2.98944 17.0903C4.39946 21.3273 11.1183 27.3382 15.0835 29.5514Z"></path>
  <path fill="url(#paint3_radial_6994_5077)" d="M15.0835 29.5514C15.6184 29.8499 16.2621 29.8334 16.794 29.5294C20.373 27.4837 26.5913 22.7756 29.0335 16.66C32.6185 8.69682 24.201 2.34007 18.3834 6.91207C17.7767 7.38883 17.014 7.93445 16.4889 8.45136C16.2512 8.68538 15.8323 8.70922 15.5855 8.48474C14.8952 7.8567 13.8166 7.05129 13.1239 6.58262C8.16424 3.2271 -0.859974 7.65025 2.98944 17.0903C4.39946 21.3273 11.1183 27.3382 15.0835 29.5514Z"></path>
  <path fill="url(#paint4_linear_6994_5077)" d="M15.0835 29.5514C15.6184 29.8499 16.2621 29.8334 16.794 29.5294C20.373 27.4837 26.5913 22.7756 29.0335 16.66C32.6185 8.69682 24.201 2.34007 18.3834 6.91207C17.7767 7.38883 17.014 7.93445 16.4889 8.45136C16.2512 8.68538 15.8323 8.70922 15.5855 8.48474C14.8952 7.8567 13.8166 7.05129 13.1239 6.58262C8.16424 3.2271 -0.859974 7.65025 2.98944 17.0903C4.39946 21.3273 11.1183 27.3382 15.0835 29.5514Z"></path>
  <path fill="url(#paint5_linear_6994_5077)" d="M15.0835 29.5514C15.6184 29.8499 16.2621 29.8334 16.794 29.5294C20.373 27.4837 26.5913 22.7756 29.0335 16.66C32.6185 8.69682 24.201 2.34007 18.3834 6.91207C17.7767 7.38883 17.014 7.93445 16.4889 8.45136C16.2512 8.68538 15.8323 8.70922 15.5855 8.48474C14.8952 7.8567 13.8166 7.05129 13.1239 6.58262C8.16424 3.2271 -0.859974 7.65025 2.98944 17.0903C4.39946 21.3273 11.1183 27.3382 15.0835 29.5514Z"></path>
  <path fill="url(#paint6_linear_6994_5077)" d="M16.0127 8.89563C16.9048 9.70336 18.2801 9.46898 19.0332 8.53027C20.177 7.10475 21.7992 5.63712 23.9482 5.50038C22.1234 5.14945 20.1355 5.53512 18.3834 6.91207C18.2328 7.03043 18.0725 7.15304 17.9087 7.2784C17.4242 7.64918 16.9081 8.04403 16.5166 8.42431C16.2633 8.67025 15.819 8.69545 15.557 8.45887C15.5177 8.42342 15.4773 8.38743 15.4358 8.351C15.5847 8.50194 15.7879 8.69216 16.0127 8.89563Z"></path>
  <g filter="url(#filter0_f_6994_5077)">
    <path fill="#FA1C56" d="M16.5658 12.1187V18.3089C16.5658 21.0235 19.4365 21.9303 20.3096 19.3599C21.057 17.1598 21.3752 14.7898 20.7327 12.7219C20.2976 11.3215 19.2473 10.5552 18.2611 10.2871C17.2236 10.0051 16.5658 11.0435 16.5658 12.1187Z"></path>
  </g>
  <g filter="url(#filter1_f_6994_5077)">
    <ellipse cx="24.707" cy="11.581" fill="url(#paint7_radial_6994_5077)" rx="4.158" ry="2.861" transform="rotate(-44.19 24.707 11.581)"></ellipse>
  </g>
  <g filter="url(#filter2_f_6994_5077)">
    <ellipse cx="12.467" cy="11.187" fill="url(#paint8_radial_6994_5077)" fill-opacity=".5" rx="4.158" ry="2.861" transform="rotate(-128.955 12.467 11.187)"></ellipse>
  </g>
  <g filter="url(#filter3_f_6994_5077)">
    <path fill="#A71135" d="M8.95278 20.2441L8.39432 17.0052C8.24502 16.5437 7.90994 16.4896 7.72244 16.8021L5.67557 21.0989L8.95278 20.2441Z"></path>
  </g>
  <path fill="url(#paint9_linear_6994_5077)" d="M6.76759 20.1099C6.65558 20.4562 6.39824 20.7364 6.06279 20.8775L3.42799 21.9853C3.01973 22.157 3.01973 22.7355 3.42799 22.9071L6.0748 24.0201C6.41099 24.1614 6.66868 24.4426 6.7803 24.7897L7.94956 28.4266C8.0983 28.8892 8.75284 28.8892 8.90157 28.4266L10.0671 24.8012C10.1785 24.455 10.4351 24.1744 10.7701 24.0326L13.431 22.9067C13.8379 22.7345 13.8379 22.1579 13.431 21.9858L10.782 20.8649C10.4478 20.7235 10.1916 20.4438 10.0798 20.0985L8.90129 16.4557C8.752 15.9943 8.09914 15.9943 7.94985 16.4557L6.76759 20.1099Z"></path>
  <path fill="url(#paint10_linear_6994_5077)" d="M6.76759 20.1099C6.65558 20.4562 6.39824 20.7364 6.06279 20.8775L3.42799 21.9853C3.01973 22.157 3.01973 22.7355 3.42799 22.9071L6.0748 24.0201C6.41099 24.1614 6.66868 24.4426 6.7803 24.7897L7.94956 28.4266C8.0983 28.8892 8.75284 28.8892 8.90157 28.4266L10.0671 24.8012C10.1785 24.455 10.4351 24.1744 10.7701 24.0326L13.431 22.9067C13.8379 22.7345 13.8379 22.1579 13.431 21.9858L10.782 20.8649C10.4478 20.7235 10.1916 20.4438 10.0798 20.0985L8.90129 16.4557C8.752 15.9943 8.09914 15.9943 7.94985 16.4557L6.76759 20.1099Z"></path>
  <path fill="url(#paint11_linear_6994_5077)" d="M6.76759 20.1099C6.65558 20.4562 6.39824 20.7364 6.06279 20.8775L3.42799 21.9853C3.01973 22.157 3.01973 22.7355 3.42799 22.9071L6.0748 24.0201C6.41099 24.1614 6.66868 24.4426 6.7803 24.7897L7.94956 28.4266C8.0983 28.8892 8.75284 28.8892 8.90157 28.4266L10.0671 24.8012C10.1785 24.455 10.4351 24.1744 10.7701 24.0326L13.431 22.9067C13.8379 22.7345 13.8379 22.1579 13.431 21.9858L10.782 20.8649C10.4478 20.7235 10.1916 20.4438 10.0798 20.0985L8.90129 16.4557C8.752 15.9943 8.09914 15.9943 7.94985 16.4557L6.76759 20.1099Z"></path>
  <path fill="url(#paint12_radial_6994_5077)" d="M6.76759 20.1099C6.65558 20.4562 6.39824 20.7364 6.06279 20.8775L3.42799 21.9853C3.01973 22.157 3.01973 22.7355 3.42799 22.9071L6.0748 24.0201C6.41099 24.1614 6.66868 24.4426 6.7803 24.7897L7.94956 28.4266C8.0983 28.8892 8.75284 28.8892 8.90157 28.4266L10.0671 24.8012C10.1785 24.455 10.4351 24.1744 10.7701 24.0326L13.431 22.9067C13.8379 22.7345 13.8379 22.1579 13.431 21.9858L10.782 20.8649C10.4478 20.7235 10.1916 20.4438 10.0798 20.0985L8.90129 16.4557C8.752 15.9943 8.09914 15.9943 7.94985 16.4557L6.76759 20.1099Z"></path>
  <path fill="url(#paint13_linear_6994_5077)" d="M6.86697 24.2509H6.43497C6.33022 24.1549 6.20874 24.0764 6.0748 24.0201L3.42799 22.9071C3.01973 22.7355 3.01973 22.157 3.42799 21.9853L6.06279 20.8775C6.39825 20.7364 6.65558 20.4562 6.76759 20.1099L7.94984 16.4557C8.09914 15.9943 8.752 15.9943 8.90129 16.4557L10.0798 20.0985C10.1916 20.4438 10.4478 20.7235 10.7821 20.8649L13.431 21.9858C13.8379 22.1579 13.8379 22.7345 13.431 22.9067L6.20682 23.3369C6.07926 23.3908 6.67166 23.7978 6.86697 24.2509Z"></path>
  <path fill="url(#paint14_linear_6994_5077)" d="M6.86697 24.2509H6.43497C6.33022 24.1549 6.20874 24.0764 6.0748 24.0201L3.42799 22.9071C3.01973 22.7355 3.01973 22.157 3.42799 21.9853L6.06279 20.8775C6.39825 20.7364 6.65558 20.4562 6.76759 20.1099L7.94984 16.4557C8.09914 15.9943 8.752 15.9943 8.90129 16.4557L10.0798 20.0985C10.1916 20.4438 10.4478 20.7235 10.7821 20.8649L13.431 21.9858C13.8379 22.1579 13.8379 22.7345 13.431 22.9067L6.20682 23.3369C6.07926 23.3908 6.67166 23.7978 6.86697 24.2509Z"></path>
  <path fill="url(#paint15_linear_6994_5077)" d="M6.43497 24.251C6.59313 24.396 6.71314 24.5809 6.78029 24.7898L7.94956 28.4267C8.09829 28.8893 8.75283 28.8893 8.90156 28.4267L10.0671 24.8013C10.1361 24.5869 10.2607 24.3977 10.4252 24.251H6.43497Z"></path>
  <g filter="url(#filter4_f_6994_5077)">
    <path stroke="url(#paint16_radial_6994_5077)" stroke-linecap="round" stroke-width=".1" d="M8.76932 16.7822L9.73638 20.0218C9.91469 20.6192 10.3614 21.0992 10.9444 21.3201L13.1131 22.1415"></path>
  </g>
  <g filter="url(#filter5_f_6994_5077)">
    <path stroke="url(#paint17_linear_6994_5077)" stroke-linecap="round" stroke-width=".1" d="M8.53494 28.9385L9.62869 25.3447"></path>
  </g>
  <g filter="url(#filter6_f_6994_5077)">
    <path stroke="url(#paint18_linear_6994_5077)" stroke-linecap="round" stroke-width=".1" d="M6.81619 21.1415L8.12869 16.7822"></path>
  </g>
  <g filter="url(#filter7_f_6994_5077)">
    <path fill="#C01942" d="M21.7959 10.1564C21.6657 10.443 21.4323 10.6699 21.1422 10.7919L19.8598 11.3311C19.636 11.4252 19.636 11.7423 19.8598 11.8364L21.1624 12.3841C21.4448 12.5028 21.6737 12.7211 21.8058 12.9974L22.6382 14.7395C22.7197 14.9931 23.0784 14.9931 23.1599 14.7395L23.4646 13.2232C23.546 12.818 23.8224 12.4792 24.203 12.3182L25.3423 11.8361C25.5653 11.7418 25.5653 11.4257 25.3423 11.3314L24.1283 10.8177C23.794 10.6763 23.5379 10.397 23.4262 10.0517C23.2244 9.42795 22.914 8.46866 22.8596 8.30046C22.7778 8.04755 22.7203 8.04755 22.6385 8.30046L21.7959 10.1564Z"></path>
  </g>
  <path fill="url(#paint19_linear_6994_5077)" d="M22.311 9.92523C22.1989 10.2715 21.9416 10.5517 21.6062 10.6927L20.4009 11.1995C20.1771 11.2936 20.1771 11.6107 20.4009 11.7048L21.6122 12.2141C21.9483 12.3554 22.206 12.6366 22.3177 12.9838L22.879 14.7299C22.9605 14.9834 23.3193 14.9834 23.4008 14.7299L23.9604 12.9893C24.0717 12.6431 24.3283 12.3625 24.6633 12.2207L25.8833 11.7045C26.1063 11.6102 26.1063 11.2941 25.8833 11.1998L24.6693 10.6861C24.3351 10.5447 24.0788 10.265 23.9671 9.91968L23.4007 8.16887C23.3188 7.91596 22.961 7.91596 22.8792 8.16887L22.311 9.92523Z"></path>
  <path fill="url(#paint20_linear_6994_5077)" d="M22.311 9.92523C22.1989 10.2715 21.9416 10.5517 21.6062 10.6927L20.4009 11.1995C20.1771 11.2936 20.1771 11.6107 20.4009 11.7048L21.6122 12.2141C21.9483 12.3554 22.206 12.6366 22.3177 12.9838L22.879 14.7299C22.9605 14.9834 23.3193 14.9834 23.4008 14.7299L23.9604 12.9893C24.0717 12.6431 24.3283 12.3625 24.6633 12.2207L25.8833 11.7045C26.1063 11.6102 26.1063 11.2941 25.8833 11.1998L24.6693 10.6861C24.3351 10.5447 24.0788 10.265 23.9671 9.91968L23.4007 8.16887C23.3188 7.91596 22.961 7.91596 22.8792 8.16887L22.311 9.92523Z"></path>
  <path fill="url(#paint21_linear_6994_5077)" d="M22.311 9.92523C22.1989 10.2715 21.9416 10.5517 21.6062 10.6927L20.4009 11.1995C20.1771 11.2936 20.1771 11.6107 20.4009 11.7048L21.6122 12.2141C21.9483 12.3554 22.206 12.6366 22.3177 12.9838L22.879 14.7299C22.9605 14.9834 23.3193 14.9834 23.4008 14.7299L23.9604 12.9893C24.0717 12.6431 24.3283 12.3625 24.6633 12.2207L25.8833 11.7045C26.1063 11.6102 26.1063 11.2941 25.8833 11.1998L24.6693 10.6861C24.3351 10.5447 24.0788 10.265 23.9671 9.91968L23.4007 8.16887C23.3188 7.91596 22.961 7.91596 22.8792 8.16887L22.311 9.92523Z"></path>
  <path fill="url(#paint22_radial_6994_5077)" d="M22.311 9.92523C22.1989 10.2715 21.9416 10.5517 21.6062 10.6927L20.4009 11.1995C20.1771 11.2936 20.1771 11.6107 20.4009 11.7048L21.6122 12.2141C21.9483 12.3554 22.206 12.6366 22.3177 12.9838L22.879 14.7299C22.9605 14.9834 23.3193 14.9834 23.4008 14.7299L23.9604 12.9893C24.0717 12.6431 24.3283 12.3625 24.6633 12.2207L25.8833 11.7045C26.1063 11.6102 26.1063 11.2941 25.8833 11.1998L24.6693 10.6861C24.3351 10.5447 24.0788 10.265 23.9671 9.91968L23.4007 8.16887C23.3188 7.91596 22.961 7.91596 22.8792 8.16887L22.311 9.92523Z"></path>
  <path fill="url(#paint23_linear_6994_5077)" d="M22.2857 12.4413H22.0489C21.9915 12.3886 21.9249 12.3456 21.8515 12.3147L20.4009 11.7048C20.1771 11.6107 20.1771 11.2936 20.4009 11.1995L21.8449 10.5923C22.0288 10.515 22.1698 10.3614 22.2312 10.1717L22.8792 8.16887C22.961 7.91596 23.3188 7.91596 23.4007 8.16887L24.0466 10.1654C24.1078 10.3547 24.2483 10.5079 24.4315 10.5855L25.8833 11.1998C26.1063 11.2941 26.1063 11.6102 25.8833 11.7045L21.9239 11.9403C21.854 11.9699 22.1786 12.1929 22.2857 12.4413Z"></path>
  <path fill="url(#paint24_linear_6994_5077)" d="M22.2857 12.4413H22.0489C21.9915 12.3886 21.9249 12.3456 21.8515 12.3147L20.4009 11.7048C20.1771 11.6107 20.1771 11.2936 20.4009 11.1995L21.8449 10.5923C22.0288 10.515 22.1698 10.3614 22.2312 10.1717L22.8792 8.16887C22.961 7.91596 23.3188 7.91596 23.4007 8.16887L24.0466 10.1654C24.1078 10.3547 24.2483 10.5079 24.4315 10.5855L25.8833 11.1998C26.1063 11.2941 26.1063 11.6102 25.8833 11.7045L21.9239 11.9403C21.854 11.9699 22.1786 12.1929 22.2857 12.4413Z"></path>
  <path fill="url(#paint25_linear_6994_5077)" d="M22.0489 12.4413C22.1356 12.5208 22.2014 12.6221 22.2382 12.7366L22.879 14.7299C22.9606 14.9834 23.3193 14.9834 23.4008 14.7299L24.0396 12.7429C24.0774 12.6254 24.1457 12.5217 24.2359 12.4413H22.0489Z"></path>
  <g filter="url(#filter8_f_6994_5077)">
    <path stroke="url(#paint26_radial_6994_5077)" stroke-linecap="round" stroke-width=".1" d="M23.3283 8.34778L23.7305 9.69501C23.9088 10.2924 24.3555 10.7724 24.9385 10.9933L25.7091 11.2851"></path>
  </g>
  <g filter="url(#filter9_f_6994_5077)">
    <path stroke="url(#paint27_linear_6994_5077)" stroke-linecap="round" stroke-width=".1" d="M23.1999 15.0104L23.7993 13.0407"></path>
  </g>
  <g filter="url(#filter10_f_6994_5077)">
    <path stroke="url(#paint28_linear_6994_5077)" stroke-linecap="round" stroke-width=".1" d="M22.2578 10.7371L22.9772 8.34778"></path>
  </g>
  <defs>
    <linearGradient id="paint4_linear_6994_5077" x1="17.61" x2="25.613" y1="16.499" y2="26.023" gradientUnits="userSpaceOnUse">
      <stop offset=".694" stop-color="#FF7AF2" stop-opacity="0"></stop>
      <stop offset=".934" stop-color="#FFBCE6"></stop>
    </linearGradient>
    <linearGradient id="paint5_linear_6994_5077" x1="16.618" x2="7.226" y1="16.895" y2="27.478" gradientUnits="userSpaceOnUse">
      <stop offset=".694" stop-color="#FF7AF2" stop-opacity="0"></stop>
      <stop offset=".934" stop-color="#FFBCE6"></stop>
    </linearGradient>
    <linearGradient id="paint6_linear_6994_5077" x1="19.688" x2="16.881" y1="9.719" y2="6.636" gradientUnits="userSpaceOnUse">
      <stop offset=".41" stop-color="#C12372" stop-opacity="0"></stop>
      <stop offset=".834" stop-color="#B5286E"></stop>
    </linearGradient>
    <linearGradient id="paint9_linear_6994_5077" x1="9.394" x2="6.676" y1="16.11" y2="25.907" gradientUnits="userSpaceOnUse">
      <stop stop-color="#FFD542"></stop>
      <stop offset="1" stop-color="#FFA847"></stop>
    </linearGradient>
    <linearGradient id="paint10_linear_6994_5077" x1="7.519" x2="6.75" y1="25.345" y2="29.583" gradientUnits="userSpaceOnUse">
      <stop offset=".458" stop-color="#E88518" stop-opacity="0"></stop>
      <stop offset="1" stop-color="#E88518"></stop>
    </linearGradient>
    <linearGradient id="paint11_linear_6994_5077" x1="5.832" x2="1.597" y1="24.376" y2="24.263" gradientUnits="userSpaceOnUse">
      <stop offset=".362" stop-color="#E88518" stop-opacity="0"></stop>
      <stop offset="1" stop-color="#E88518"></stop>
    </linearGradient>
    <linearGradient id="paint13_linear_6994_5077" x1="7.441" x2="6.427" y1="22.298" y2="24.464" gradientUnits="userSpaceOnUse">
      <stop offset=".782" stop-color="#E88518" stop-opacity="0"></stop>
      <stop offset="1" stop-color="#E88518"></stop>
    </linearGradient>
    <linearGradient id="paint14_linear_6994_5077" x1="7.441" x2="6.427" y1="22.298" y2="24.464" gradientUnits="userSpaceOnUse">
      <stop offset=".782" stop-color="#E88518" stop-opacity="0"></stop>
      <stop offset="1" stop-color="#E88518"></stop>
    </linearGradient>
    <linearGradient id="paint15_linear_6994_5077" x1="9.615" x2="7.498" y1="26.891" y2="27.601" gradientUnits="userSpaceOnUse">
      <stop offset=".776" stop-color="#E88518" stop-opacity="0"></stop>
      <stop offset="1" stop-color="#E88518"></stop>
    </linearGradient>
    <linearGradient id="paint17_linear_6994_5077" x1="9.066" x2="8.205" y1="27.485" y2="26.078" gradientUnits="userSpaceOnUse">
      <stop stop-color="#FFF270" stop-opacity="0"></stop>
      <stop offset=".495" stop-color="#FFF270" stop-opacity=".6"></stop>
      <stop offset="1" stop-color="#FFF270" stop-opacity="0"></stop>
    </linearGradient>
    <linearGradient id="paint18_linear_6994_5077" x1="8.004" x2="9.683" y1="16.454" y2="18.896" gradientUnits="userSpaceOnUse">
      <stop stop-color="#FF8A09" stop-opacity=".6"></stop>
      <stop offset="1" stop-color="#FF8A09" stop-opacity="0"></stop>
    </linearGradient>
    <linearGradient id="paint19_linear_6994_5077" x1="23.671" x2="22.181" y1="7.979" y2="13.349" gradientUnits="userSpaceOnUse">
      <stop stop-color="#FFD542"></stop>
      <stop offset="1" stop-color="#FFA847"></stop>
    </linearGradient>
    <linearGradient id="paint20_linear_6994_5077" x1="22.643" x2="22.221" y1="13.041" y2="15.364" gradientUnits="userSpaceOnUse">
      <stop offset=".458" stop-color="#E88518" stop-opacity="0"></stop>
      <stop offset="1" stop-color="#E88518"></stop>
    </linearGradient>
    <linearGradient id="paint21_linear_6994_5077" x1="21.718" x2="19.398" y1="12.51" y2="12.448" gradientUnits="userSpaceOnUse">
      <stop offset=".362" stop-color="#E88518" stop-opacity="0"></stop>
      <stop offset="1" stop-color="#E88518"></stop>
    </linearGradient>
    <linearGradient id="paint23_linear_6994_5077" x1="22.6" x2="22.045" y1="11.371" y2="12.558" gradientUnits="userSpaceOnUse">
      <stop offset=".782" stop-color="#E88518" stop-opacity="0"></stop>
      <stop offset="1" stop-color="#E88518"></stop>
    </linearGradient>
    <linearGradient id="paint24_linear_6994_5077" x1="22.6" x2="22.045" y1="11.371" y2="12.558" gradientUnits="userSpaceOnUse">
      <stop offset=".782" stop-color="#E88518" stop-opacity="0"></stop>
      <stop offset="1" stop-color="#E88518"></stop>
    </linearGradient>
    <linearGradient id="paint25_linear_6994_5077" x1="23.792" x2="22.632" y1="13.888" y2="14.277" gradientUnits="userSpaceOnUse">
      <stop offset=".776" stop-color="#E88518" stop-opacity="0"></stop>
      <stop offset="1" stop-color="#E88518"></stop>
    </linearGradient>
    <linearGradient id="paint27_linear_6994_5077" x1="23.491" x2="23.019" y1="14.214" y2="13.443" gradientUnits="userSpaceOnUse">
      <stop stop-color="#FFF270" stop-opacity="0"></stop>
      <stop offset=".495" stop-color="#FFF270" stop-opacity=".6"></stop>
      <stop offset="1" stop-color="#FFF270" stop-opacity="0"></stop>
    </linearGradient>
    <linearGradient id="paint28_linear_6994_5077" x1="22.909" x2="23.829" y1="8.168" y2="9.506" gradientUnits="userSpaceOnUse">
      <stop stop-color="#FF8A09" stop-opacity=".6"></stop>
      <stop offset="1" stop-color="#FF8A09" stop-opacity="0"></stop>
    </linearGradient>
    <filter id="filter0_f_6994_5077" width="8.512" height="14.643" x="14.566" y="8.24" color-interpolation-filters="sRGB" filterUnits="userSpaceOnUse">
      <feFlood flood-opacity="0" result="BackgroundImageFix"></feFlood>
      <feBlend in="SourceGraphic" in2="BackgroundImageFix" result="shape"></feBlend>
      <feGaussianBlur result="effect1_foregroundBlur_6994_5077" stdDeviation="1"></feGaussianBlur>
    </filter>
    <filter id="filter1_f_6994_5077" width="10.174" height="10.102" x="19.62" y="6.53" color-interpolation-filters="sRGB" filterUnits="userSpaceOnUse">
      <feFlood flood-opacity="0" result="BackgroundImageFix"></feFlood>
      <feBlend in="SourceGraphic" in2="BackgroundImageFix" result="shape"></feBlend>
      <feGaussianBlur result="effect1_foregroundBlur_6994_5077" stdDeviation=".75"></feGaussianBlur>
    </filter>
    <filter id="filter2_f_6994_5077" width="9.865" height="10.401" x="7.535" y="5.987" color-interpolation-filters="sRGB" filterUnits="userSpaceOnUse">
      <feFlood flood-opacity="0" result="BackgroundImageFix"></feFlood>
      <feBlend in="SourceGraphic" in2="BackgroundImageFix" result="shape"></feBlend>
      <feGaussianBlur result="effect1_foregroundBlur_6994_5077" stdDeviation=".75"></feGaussianBlur>
    </filter>
    <filter id="filter3_f_6994_5077" width="5.277" height="6.494" x="4.676" y="15.605" color-interpolation-filters="sRGB" filterUnits="userSpaceOnUse">
      <feFlood flood-opacity="0" result="BackgroundImageFix"></feFlood>
      <feBlend in="SourceGraphic" in2="BackgroundImageFix" result="shape"></feBlend>
      <feGaussianBlur result="effect1_foregroundBlur_6994_5077" stdDeviation=".5"></feGaussianBlur>
    </filter>
    <filter id="filter4_f_6994_5077" width="4.944" height="5.959" x="8.469" y="16.482" color-interpolation-filters="sRGB" filterUnits="userSpaceOnUse">
      <feFlood flood-opacity="0" result="BackgroundImageFix"></feFlood>
      <feBlend in="SourceGraphic" in2="BackgroundImageFix" result="shape"></feBlend>
      <feGaussianBlur result="effect1_foregroundBlur_6994_5077" stdDeviation=".125"></feGaussianBlur>
    </filter>
    <filter id="filter5_f_6994_5077" width="1.494" height="3.994" x="8.335" y="25.145" color-interpolation-filters="sRGB" filterUnits="userSpaceOnUse">
      <feFlood flood-opacity="0" result="BackgroundImageFix"></feFlood>
      <feBlend in="SourceGraphic" in2="BackgroundImageFix" result="shape"></feBlend>
      <feGaussianBlur result="effect1_foregroundBlur_6994_5077" stdDeviation=".075"></feGaussianBlur>
    </filter>
    <filter id="filter6_f_6994_5077" width="2.013" height="5.059" x="6.466" y="16.432" color-interpolation-filters="sRGB" filterUnits="userSpaceOnUse">
      <feFlood flood-opacity="0" result="BackgroundImageFix"></feFlood>
      <feBlend in="SourceGraphic" in2="BackgroundImageFix" result="shape"></feBlend>
      <feGaussianBlur result="effect1_foregroundBlur_6994_5077" stdDeviation=".15"></feGaussianBlur>
    </filter>
    <filter id="filter7_f_6994_5077" width="7.318" height="8.319" x="18.942" y="7.361" color-interpolation-filters="sRGB" filterUnits="userSpaceOnUse">
      <feFlood flood-opacity="0" result="BackgroundImageFix"></feFlood>
      <feBlend in="SourceGraphic" in2="BackgroundImageFix" result="shape"></feBlend>
      <feGaussianBlur result="effect1_foregroundBlur_6994_5077" stdDeviation=".375"></feGaussianBlur>
    </filter>
    <filter id="filter8_f_6994_5077" width="2.981" height="3.537" x="23.028" y="8.048" color-interpolation-filters="sRGB" filterUnits="userSpaceOnUse">
      <feFlood flood-opacity="0" result="BackgroundImageFix"></feFlood>
      <feBlend in="SourceGraphic" in2="BackgroundImageFix" result="shape"></feBlend>
      <feGaussianBlur result="effect1_foregroundBlur_6994_5077" stdDeviation=".125"></feGaussianBlur>
    </filter>
    <filter id="filter9_f_6994_5077" width=".999" height="2.37" x="23" y="12.841" color-interpolation-filters="sRGB" filterUnits="userSpaceOnUse">
      <feFlood flood-opacity="0" result="BackgroundImageFix"></feFlood>
      <feBlend in="SourceGraphic" in2="BackgroundImageFix" result="shape"></feBlend>
      <feGaussianBlur result="effect1_foregroundBlur_6994_5077" stdDeviation=".075"></feGaussianBlur>
    </filter>
    <filter id="filter10_f_6994_5077" width="1.419" height="3.089" x="21.908" y="7.998" color-interpolation-filters="sRGB" filterUnits="userSpaceOnUse">
      <feFlood flood-opacity="0" result="BackgroundImageFix"></feFlood>
      <feBlend in="SourceGraphic" in2="BackgroundImageFix" result="shape"></feBlend>
      <feGaussianBlur result="effect1_foregroundBlur_6994_5077" stdDeviation=".15"></feGaussianBlur>
    </filter>
    <radialGradient id="paint0_radial_6994_5077" cx="0" cy="0" r="1" gradientTransform="matrix(0 -32.5418 55.321 0 18.8 29.33)" gradientUnits="userSpaceOnUse">
      <stop stop-color="#F12E52"></stop>
      <stop offset=".596" stop-color="#FF3B79"></stop>
      <stop offset="1" stop-color="#FF4EC6"></stop>
    </radialGradient>
    <radialGradient id="paint1_radial_6994_5077" cx="0" cy="0" r="1" gradientTransform="rotate(142.986 9.478 9.697)scale(26.1961 49.0678)" gradientUnits="userSpaceOnUse">
      <stop offset=".483" stop-color="#B91D43" stop-opacity="0"></stop>
      <stop offset=".834" stop-color="#B91D43"></stop>
    </radialGradient>
    <radialGradient id="paint2_radial_6994_5077" cx="0" cy="0" r="1" gradientTransform="matrix(-21.1654 -8.2678 11.68768 -29.92024 19.859 18.152)" gradientUnits="userSpaceOnUse">
      <stop offset=".41" stop-color="#B91D43" stop-opacity="0"></stop>
      <stop offset=".834" stop-color="#B91D43"></stop>
    </radialGradient>
    <radialGradient id="paint3_radial_6994_5077" cx="0" cy="0" r="1" gradientTransform="rotate(90 .622 14.805)scale(19.7764)" gradientUnits="userSpaceOnUse">
      <stop offset=".671" stop-color="#FF7AF2" stop-opacity="0"></stop>
      <stop offset=".934" stop-color="#FFBCE6"></stop>
    </radialGradient>
    <radialGradient id="paint7_radial_6994_5077" cx="0" cy="0" r="1" gradientTransform="rotate(-176.775 14.621 5.824)scale(6.14843 4.1517)" gradientUnits="userSpaceOnUse">
      <stop stop-color="#FF93BA"></stop>
      <stop offset="1" stop-color="#FF73A6" stop-opacity="0"></stop>
    </radialGradient>
    <radialGradient id="paint8_radial_6994_5077" cx="0" cy="0" r="1" gradientTransform="rotate(-178.3 7.55 5.87)scale(8.84998 5.97591)" gradientUnits="userSpaceOnUse">
      <stop stop-color="#FF93BA"></stop>
      <stop offset="1" stop-color="#FF73A6" stop-opacity="0"></stop>
    </radialGradient>
    <radialGradient id="paint12_radial_6994_5077" cx="0" cy="0" r="1" gradientTransform="rotate(103.828 .125 10.288)scale(7.17675 19.8288)" gradientUnits="userSpaceOnUse">
      <stop stop-color="#FFFF6B"></stop>
      <stop offset="1" stop-color="#FFFF6B" stop-opacity="0"></stop>
    </radialGradient>
    <radialGradient id="paint16_radial_6994_5077" cx="0" cy="0" r="1" gradientTransform="matrix(5.71875 5.35938 -4.58265 4.88994 8.129 16.782)" gradientUnits="userSpaceOnUse">
      <stop stop-color="#FFF270" stop-opacity="0"></stop>
      <stop offset=".548" stop-color="#FFF270"></stop>
      <stop offset="1" stop-color="#FFF270" stop-opacity="0"></stop>
    </radialGradient>
    <radialGradient id="paint22_radial_6994_5077" cx="0" cy="0" r="1" gradientTransform="rotate(103.828 9.662 12.471)scale(3.93343 10.8678)" gradientUnits="userSpaceOnUse">
      <stop stop-color="#FFFF6B"></stop>
      <stop offset="1" stop-color="#FFFF6B" stop-opacity="0"></stop>
    </radialGradient>
    <radialGradient id="paint26_radial_6994_5077" cx="0" cy="0" r="1" gradientTransform="rotate(43.142 .93 33.234)scale(4.29559 3.67304)" gradientUnits="userSpaceOnUse">
      <stop stop-color="#FFF270" stop-opacity="0"></stop>
      <stop offset=".548" stop-color="#FFF270"></stop>
      <stop offset="1" stop-color="#FFF270" stop-opacity="0"></stop>
    </radialGradient>
  </defs>
</svg>
